<mxfile host="www.draw.io" modified="2019-11-11T09:19:38.409Z" agent="Mozilla/5.0 (Macintosh; Intel Mac OS X 10_14_2) AppleWebKit/537.36 (KHTML, like Gecko) Chrome/78.0.3904.70 Safari/537.36" etag="GnRvqxvbsgZYib0wx5L9" version="12.2.3" type="github" pages="1">
  <diagram name="Page-1" id="e7e014a7-5840-1c2e-5031-d8a46d1fe8dd">
    <mxGraphModel dx="1426" dy="642" grid="1" gridSize="10" guides="1" tooltips="1" connect="1" arrows="1" fold="1" page="1" pageScale="1" pageWidth="1169" pageHeight="826" background="#ffffff" math="0" shadow="0">
      <root>
        <mxCell id="0"/>
        <mxCell id="1" parent="0"/>
        <mxCell id="2" value="预案管理员" style="swimlane;whiteSpace=wrap" parent="1" vertex="1">
          <mxGeometry x="160" y="128" width="280" height="570" as="geometry"/>
        </mxCell>
        <mxCell id="5" value="" style="ellipse;shape=startState;fillColor=#000000;strokeColor=#ff0000;" parent="2" vertex="1">
          <mxGeometry x="100" y="40" width="30" height="30" as="geometry"/>
        </mxCell>
        <mxCell id="6" value="" style="edgeStyle=elbowEdgeStyle;elbow=horizontal;verticalAlign=bottom;endArrow=open;endSize=8;strokeColor=#FF0000;endFill=1;rounded=0" parent="2" source="5" target="7" edge="1">
          <mxGeometry x="100" y="40" as="geometry">
            <mxPoint x="115" y="110" as="targetPoint"/>
          </mxGeometry>
        </mxCell>
        <mxCell id="7" value="预案管理" style="" parent="2" vertex="1">
          <mxGeometry x="60" y="110" width="110" height="50" as="geometry"/>
        </mxCell>
        <mxCell id="8" value="预案工具管理" style="" parent="2" vertex="1">
          <mxGeometry x="60" y="220" width="110" height="50" as="geometry"/>
        </mxCell>
        <mxCell id="9" value="" style="endArrow=open;strokeColor=#FF0000;endFill=1;rounded=0" parent="2" source="7" target="8" edge="1">
          <mxGeometry relative="1" as="geometry"/>
        </mxCell>
        <mxCell id="10" value="预案编排管理" style="" parent="2" vertex="1">
          <mxGeometry x="60" y="325" width="110" height="50" as="geometry"/>
        </mxCell>
        <mxCell id="11" value="" style="endArrow=open;strokeColor=#FF0000;endFill=1;rounded=0" parent="2" source="8" target="10" edge="1">
          <mxGeometry relative="1" as="geometry"/>
        </mxCell>
        <mxCell id="3" value="预案操作员" style="swimlane;whiteSpace=wrap" parent="1" vertex="1">
          <mxGeometry x="444.5" y="128" width="280" height="570" as="geometry"/>
        </mxCell>
        <mxCell id="13" value="" style="ellipse;shape=startState;fillColor=#000000;strokeColor=#ff0000;" parent="3" vertex="1">
          <mxGeometry x="114" y="40" width="30" height="30" as="geometry"/>
        </mxCell>
        <mxCell id="14" value="" style="edgeStyle=elbowEdgeStyle;elbow=horizontal;verticalAlign=bottom;endArrow=open;endSize=8;strokeColor=#FF0000;endFill=1;rounded=0" parent="3" source="13" target="15" edge="1">
          <mxGeometry x="94" y="20" as="geometry">
            <mxPoint x="109" y="90" as="targetPoint"/>
          </mxGeometry>
        </mxCell>
        <mxCell id="15" value="查看预案" style="" parent="3" vertex="1">
          <mxGeometry x="74" y="110" width="110" height="50" as="geometry"/>
        </mxCell>
        <mxCell id="16" value="执行预案" style="" parent="3" vertex="1">
          <mxGeometry x="74" y="220" width="110" height="50" as="geometry"/>
        </mxCell>
        <mxCell id="17" value="" style="endArrow=open;strokeColor=#FF0000;endFill=1;rounded=0" parent="3" source="15" target="16" edge="1">
          <mxGeometry relative="1" as="geometry"/>
        </mxCell>
        <mxCell id="PDpjag8MvGyCRqaJoiX9-51" value="结果" style="edgeStyle=orthogonalEdgeStyle;rounded=0;orthogonalLoop=1;jettySize=auto;html=1;exitX=0.75;exitY=0;exitDx=0;exitDy=0;entryX=0.75;entryY=1;entryDx=0;entryDy=0;fontColor=#FF0000;strokeColor=#FF0000;" edge="1" parent="3" source="18" target="16">
          <mxGeometry relative="1" as="geometry"/>
        </mxCell>
        <mxCell id="18" value="预案工具执行" style="" parent="3" vertex="1">
          <mxGeometry x="73" y="325" width="116" height="45" as="geometry"/>
        </mxCell>
        <mxCell id="19" value="参数" style="endArrow=open;strokeColor=#FF0000;endFill=1;rounded=0" parent="3" edge="1">
          <mxGeometry relative="1" as="geometry">
            <mxPoint x="103.79787234042556" y="270" as="sourcePoint"/>
            <mxPoint x="104.7844827586207" y="325" as="targetPoint"/>
            <Array as="points">
              <mxPoint x="104.5" y="292"/>
            </Array>
          </mxGeometry>
        </mxCell>
        <mxCell id="4" value="三方" style="swimlane;whiteSpace=wrap" parent="1" vertex="1">
          <mxGeometry x="725" y="128" width="280" height="570" as="geometry"/>
        </mxCell>
        <mxCell id="33" value="shell" style="" parent="4" vertex="1">
          <mxGeometry x="30" y="373.5" width="110" height="50" as="geometry"/>
        </mxCell>
        <mxCell id="38" value="" style="ellipse;shape=endState;fillColor=#000000;strokeColor=#ff0000" parent="4" vertex="1">
          <mxGeometry x="125" y="467" width="30" height="30" as="geometry"/>
        </mxCell>
        <mxCell id="39" value="" style="endArrow=open;strokeColor=#FF0000;endFill=1;rounded=0" parent="4" source="33" target="38" edge="1">
          <mxGeometry relative="1" as="geometry"/>
        </mxCell>
        <mxCell id="PDpjag8MvGyCRqaJoiX9-41" value="SOA" style="" vertex="1" parent="4">
          <mxGeometry x="85" y="112" width="110" height="50" as="geometry"/>
        </mxCell>
        <mxCell id="PDpjag8MvGyCRqaJoiX9-42" value="..." style="" vertex="1" parent="4">
          <mxGeometry x="85" y="202" width="110" height="50" as="geometry"/>
        </mxCell>
        <mxCell id="PDpjag8MvGyCRqaJoiX9-44" value="" style="edgeStyle=orthogonalEdgeStyle;rounded=0;orthogonalLoop=1;jettySize=auto;html=1;" edge="1" parent="4" source="PDpjag8MvGyCRqaJoiX9-43" target="33">
          <mxGeometry relative="1" as="geometry"/>
        </mxCell>
        <mxCell id="PDpjag8MvGyCRqaJoiX9-46" style="edgeStyle=orthogonalEdgeStyle;rounded=0;orthogonalLoop=1;jettySize=auto;html=1;entryX=0.5;entryY=0;entryDx=0;entryDy=0;" edge="1" parent="4" source="PDpjag8MvGyCRqaJoiX9-43" target="PDpjag8MvGyCRqaJoiX9-45">
          <mxGeometry relative="1" as="geometry"/>
        </mxCell>
        <mxCell id="PDpjag8MvGyCRqaJoiX9-43" value="PlanMan-SDK" style="" vertex="1" parent="4">
          <mxGeometry x="85" y="285" width="110" height="45" as="geometry"/>
        </mxCell>
        <mxCell id="PDpjag8MvGyCRqaJoiX9-45" value="中间件预案API" style="" vertex="1" parent="4">
          <mxGeometry x="155" y="373.5" width="110" height="50" as="geometry"/>
        </mxCell>
        <mxCell id="PDpjag8MvGyCRqaJoiX9-57" value="" style="endArrow=classic;html=1;strokeColor=#FF0000;fontColor=#FF0000;exitX=1;exitY=0.5;exitDx=0;exitDy=0;elbow=vertical;edgeStyle=entityRelationEdgeStyle;" edge="1" parent="4" source="18">
          <mxGeometry width="50" height="50" relative="1" as="geometry">
            <mxPoint x="-85" y="352" as="sourcePoint"/>
            <mxPoint x="85" y="137.5" as="targetPoint"/>
          </mxGeometry>
        </mxCell>
        <mxCell id="20" value="" style="endArrow=open;strokeColor=#FF0000;endFill=1;rounded=0" parent="1" source="10" target="18" edge="1">
          <mxGeometry relative="1" as="geometry"/>
        </mxCell>
        <mxCell id="PDpjag8MvGyCRqaJoiX9-58" value="" style="endArrow=classic;html=1;strokeColor=#FF0000;fontColor=#FF0000;exitX=1;exitY=0.5;exitDx=0;exitDy=0;entryX=0;entryY=0.5;entryDx=0;entryDy=0;elbow=vertical;edgeStyle=entityRelationEdgeStyle;" edge="1" parent="1" source="18" target="PDpjag8MvGyCRqaJoiX9-42">
          <mxGeometry width="50" height="50" relative="1" as="geometry">
            <mxPoint x="1358.5" y="603.5" as="sourcePoint"/>
            <mxPoint x="1535" y="393.5" as="targetPoint"/>
          </mxGeometry>
        </mxCell>
        <mxCell id="PDpjag8MvGyCRqaJoiX9-59" value="" style="endArrow=classic;html=1;strokeColor=#FF0000;fontColor=#FF0000;exitX=1;exitY=0.5;exitDx=0;exitDy=0;entryX=0;entryY=0.5;entryDx=0;entryDy=0;elbow=vertical;edgeStyle=entityRelationEdgeStyle;" edge="1" parent="1" source="18" target="PDpjag8MvGyCRqaJoiX9-43">
          <mxGeometry width="50" height="50" relative="1" as="geometry">
            <mxPoint x="633.5" y="475.5" as="sourcePoint"/>
            <mxPoint x="810" y="355" as="targetPoint"/>
          </mxGeometry>
        </mxCell>
      </root>
    </mxGraphModel>
  </diagram>
</mxfile>
